<?xml version="1.0" standalone="no"?>
<!DOCTYPE svg PUBLIC "-//W3C//DTD SVG 20010904//EN"
 "http://www.w3.org/TR/2001/REC-SVG-20010904/DTD/svg10.dtd">
<svg version="1.0" xmlns="http://www.w3.org/2000/svg"
 width="700.000000pt" height="700.000000pt" viewBox="0 0 700.000000 700.000000"
 preserveAspectRatio="xMidYMid meet">
<metadata>
Created by potrace 1.11, written by Peter Selinger 2001-2013
</metadata>
<g transform="translate(0.000000,700.000000) scale(0.100000,-0.100000)"
fill="#000000" stroke="none">
<path d="M3235 6989 c-706 -54 -1369 -317 -1935 -767 -124 -99 -425 -401 -522
-522 -621 -783 -882 -1742 -738 -2719 90 -610 339 -1176 739 -1681 98 -124
400 -426 521 -521 541 -427 1113 -668 1795 -756 196 -25 614 -25 810 0 430 56
786 162 1155 346 729 364 1312 973 1639 1714 144 325 238 676 283 1052 7 62
13 220 13 365 0 145 -6 303 -13 365 -85 720 -356 1356 -807 1890 -119 141
-349 366 -490 478 -688 550 -1571 822 -2450 756z m256 -1225 c263 -44 531
-182 736 -377 202 -193 323 -396 390 -653 25 -99 28 -125 28 -284 0 -188 -12
-273 -61 -419 -85 -255 -263 -500 -479 -659 -152 -112 -376 -208 -554 -236
-47 -8 -87 -13 -88 -12 -1 0 -19 150 -40 331 l-39 330 76 20 c202 55 357 183
446 370 64 132 78 266 45 398 -25 95 -49 144 -116 232 -69 90 -164 169 -270
223 -60 30 -164 62 -203 62 l-35 0 4 -987 c2 -544 3 -1277 1 -1630 l-2 -643
-380 0 -380 0 0 1624 c0 1757 -2 1691 54 1839 54 142 179 295 306 372 171 104
348 135 561 99z"/>
</g>
</svg>
